<svg xmlns="http://www.w3.org/2000/svg" viewBox="0 0 72.07 13.69"><defs><style>.cls-1{fill:#59d8d1;}.cls-2{fill:none;stroke:#59d8d1;stroke-linecap:round;stroke-miterlimit:10;}</style></defs><g id="Layer_2" data-name="Layer 2"><g id="Dashboard"><polygon class="cls-1" points="6.12 1.13 8.01 4.96 12.24 5.58 9.18 8.56 9.9 12.77 6.12 10.79 2.34 12.77 3.06 8.56 0 5.58 4.23 4.96 6.12 1.13"/><polygon class="cls-1" points="20.81 1.13 22.7 4.96 26.93 5.58 23.87 8.56 24.59 12.77 20.81 10.79 17.03 12.77 17.75 8.56 14.69 5.58 18.92 4.96 20.81 1.13"/><polygon class="cls-1" points="35.5 1.13 37.39 4.96 41.62 5.58 38.56 8.56 39.28 12.77 35.5 10.79 31.71 12.77 32.44 8.56 29.38 5.58 33.61 4.96 35.5 1.13"/><polygon class="cls-1" points="50.19 1.13 52.08 4.96 56.31 5.58 53.25 8.56 53.97 12.77 50.19 10.79 46.4 12.77 47.13 8.56 44.06 5.58 48.29 4.96 50.19 1.13"/><polygon class="cls-2" points="64.87 1.13 66.77 4.96 71 5.58 67.94 8.56 68.66 12.77 64.87 10.79 61.09 12.77 61.81 8.56 58.75 5.58 62.98 4.96 64.87 1.13"/></g></g></svg>